# xmcd
#
# Track frame offsets: 
#        150
#        19802
#        39206
#        57731
#        81029
#        96497
#        113344
#        142850
#        159118
#        181764
#        198115
#        222654
#        244700
#
# Disc length: 3574 seconds
#
# Revision: 0
# Processed by: cddbd v1.5.2PL0 Copyright (c) Steve Scherf et al.
# Submitted via: ExactAudioCopy v1.3
#
DISCID=a10df40d
DTITLE=Zoe Schwarz Blue Commotion - This Is The Life I Choose
DYEAR=2017
DGENRE=Blues
TTITLE0=Hold On
TTITLE1=My Baby Told Me So
TTITLE2=People
TTITLE3=Broken
TTITLE4=I Wanna Get Something Started With You
TTITLE5=Free From You
TTITLE6=This Is The Life I Choose
TTITLE7=Exit
TTITLE8=I Can't Live Like That
TTITLE9=No Money In My Pocket
TTITLE10=Call Of The Night
TTITLE11=We're Going Wrong
TTITLE12=Feeling Good
EXTD=
EXTT0=
EXTT1=
EXTT2=
EXTT3=
EXTT4=
EXTT5=
EXTT6=
EXTT7=
EXTT8=
EXTT9=
EXTT10=
EXTT11=
EXTT12=
PLAYORDER=
